<svg xmlns="http://www.w3.org/2000/svg" viewBox="0 0 600 260" width="600" height="260"><path d="M210.41670288085936 97.7420166015625Q214.60212280273436 86.03922241210937 219.1649169921875 80.73693237304687Q223.72771118164061 75.43464233398437 229.54508544921873 75.43464233398437Q232.36703979492188 75.43464233398437 233.80011779785156 77.076806640625Q235.23319580078123 78.71897094726562 235.23319580078123 81.27571533203124Q235.23319580078123 84.10445556640624 233.75761779785154 86.01521240234375Q232.28203979492187 87.92596923828125 228.3925012207031 89.63952026367187Q225.89010620117188 90.47590698242186 223.8841082763672 91.81379577636719Q221.8781103515625 93.1516845703125 220.2631103515625 95.18317626953126Q218.64811035156248 97.21466796875 217.20990661621093 100.0893634033203Q215.77170288085938 102.96405883789062 214.31989624023436 106.93865966796875L194.53851196289062 157.85741577148437Q190.17968872070313 169.68262573242188 184.45069702148436 177.14732116699219Q178.72170532226562 184.61201660156252 171.3743310546875 188.13100830078128Q164.02695678710936 191.65 154.66338500976562 191.65Q147.77166137695312 191.65 144.29179748535154 189.19694274902344Q140.81193359374998 186.7438854980469 140.81193359374998 182.966552734375Q140.81193359374998 180.17180419921874 142.51360412597654 178.44293823242185Q144.2152746582031 176.714072265625 147.12563232421874 176.714072265625Q148.71340576171875 176.714072265625 149.93229248046873 177.37875732421872Q151.15117919921875 178.0434423828125 152.3156750488281 179.0090203857422Q153.48017089843748 179.97459838867186 154.71267089843747 180.9724768066406Q155.94517089843748 181.97035522460936 157.4547717285156 182.63504028320312Q158.96437255859374 183.2997253417969 160.93636840820312 183.2997253417969Q164.83960327148435 183.2997253417969 168.72584228515623 180.87380126953127Q172.61208129882812 178.44787719726563 175.81321533203123 174.3202410888672Q179.01434936523435 170.19260498046876 180.9489709472656 164.85116638183592Q182.88359252929686 159.50972778320312 182.88359252929686 153.7432995605469Q182.88359252929686 150.68329956054689 182.74589294433594 146.63730163574218Q182.60819335937498 142.5913037109375 182.35319335937498 137.74800537109374Q182.098193359375 132.90470703124998 181.78029418945312 127.43070495605468Q181.46239501953124 121.95670288085938 181.05949584960936 116.07129333496094Q180.65659667968748 110.1858837890625 180.2111975097656 104.0573651123047Q179.76579833984374 97.92884643554687 179.32039916992187 91.75441406249999Q178.9634033203125 87.32082153320312 178.074306640625 85.82652526855469Q177.1852099609375 84.33222900390625 175.67560913085936 84.33222900390625Q174.30880249023437 84.33222900390625 173.1680987548828 85.53243896484375Q172.02739501953124 86.73264892578125 170.4293908691406 89.3404638671875Q169.64739501953125 90.65966552734375 168.77360290527344 91.15096801757812Q167.89981079101562 91.6422705078125 166.995419921875 91.17987548828125Q166.0536340332031 90.63588378906249 165.87343444824216 89.3762091064453Q165.69323486328125 88.11653442382811 166.63161743164062 85.83857177734374Q167.68220581054686 83.09819335937499 169.66778381347655 80.72330871582031Q171.65336181640623 78.34842407226562 174.32233276367185 76.891533203125Q176.9913037109375 75.43464233398437 179.9322705078125 75.43464233398437Q184.26042236328124 75.43464233398437 186.49419372558594 78.28211120605468Q188.72796508789062 81.12958007812499 189.248154296875 87.23590454101563Q189.62895263671874 92.49571533203124 190.03185180664062 98.63952819824217Q190.4347509765625 104.78334106445311 190.84955139160155 111.51025268554687Q191.2643518066406 118.23716430664062 191.64855346679684 125.32107177734375Q192.0327551269531 132.40497924804689 192.32175720214843 139.567080078125Q192.61075927734373 146.72918090820312 192.86916259765624 153.75357177734375L190.4722082519531 153.48838256835938ZM293.96473022460935 135.92415771484374Q295.188701171875 136.24716186523438 295.31789245605466 137.80263488769532Q295.44708374023435 139.35810791015626 294.3455078125 141.08527221679688Q291.5643310546875 145.55283569335938 286.81627380371094 148.46491577148439Q282.0682165527344 151.3769958496094 276.7778588867187 151.3769958496094Q272.7964929199219 151.3769958496094 270.7225115966797 149.50700622558594Q268.6485302734375 147.6370166015625 268.6485302734375 143.8936340332031Q268.6485302734375 141.86724731445312 269.39312072753904 139.3852618408203Q270.1377111816406 136.9032763671875 271.7051062011719 132.8317742919922Q273.27250122070313 128.76027221679686 275.81571533203123 122.21353942871093Q278.3589294433594 115.666806640625 281.9561767578125 105.66052612304688L284.2919543457031 106.01411865234374Q279.807353515625 118.50233276367187 274.35545227050784 127.20804687500001Q268.90355102539064 135.91376098632813 263.1235510253906 141.21607177734376Q257.34355102539064 146.51838256835939 251.8576580810547 148.9476892089844Q246.37176513671875 151.3769958496094 241.86338256835938 151.3769958496094Q236.426806640625 151.3769958496094 233.97031494140623 148.60941162109376Q231.5138232421875 145.84182739257812 231.6923211669922 140.67554565429685Q231.87081909179688 135.5092639160156 234.30861328125 128.399873046875L245.15128051757813 95.93304809570313Q247.06888549804688 90.23802734374999 246.91928466796875 87.4993194580078Q246.76968383789062 84.76061157226562 244.1482763671875 84.76061157226562Q242.26466308593749 84.76061157226562 240.47624938964844 85.81292236328125Q238.68783569335938 86.86523315429687 236.270419921875 89.48325805664062Q235.09401245117186 90.72766967773437 234.3817120361328 91.11187133789062Q233.66941162109373 91.49607299804687 232.98941162109375 91.17306884765625Q231.92523071289062 90.85006469726562 231.75694274902344 89.364287109375Q231.58865478515625 87.87850952148438 232.73443237304687 85.73995849609375Q235.2232141113281 81.405 239.8335821533203 78.4198211669922Q244.44395019531248 75.43464233398437 249.59829956054688 75.43464233398437Q253.71224975585938 75.43464233398437 255.8049285888672 77.47462158203125Q257.897607421875 79.51460083007812 258.05570617675784 83.3412713623047Q258.21380493164065 87.16794189453125 256.4594140625 92.43111450195312L245.03533935546875 127.6281494140625Q242.38332275390624 135.69300170898438 243.49853271484375 138.99440917968752Q244.61374267578125 142.29581665039063 248.748154296875 142.29581665039063Q252.29777587890624 142.29581665039063 256.5835107421875 139.67949340820314Q260.86924560546873 137.06317016601562 265.3079846191406 132.05662658691406Q269.7467236328125 127.0500830078125 273.7995593261719 119.87772033691407Q277.85239501953123 112.70535766601563 280.85121826171877 103.65787963867187Q282.48661743164064 98.99647216796875 283.28221618652344 96.27647216796875Q284.07781494140625 93.55647216796875 284.36341369628906 92.02137756347656Q284.64901245117187 90.48628295898436 284.64901245117187 89.39149291992187Q284.64901245117187 87.14750122070312 284.1866174316406 85.40671325683593Q283.7242224121094 83.66592529296875 283.7242224121094 81.6021435546875Q283.7242224121094 78.6747900390625 286.18238464355466 77.05471618652344Q288.640546875 75.43464233398437 292.82245971679686 75.43464233398437Q297.40557006835934 75.43464233398437 298.2640472412109 78.81420166015624Q299.12252441406247 82.19376098632812 296.0897509765625 90.19731201171874L281.44926879882814 130.8989892578125Q279.2630712890625 136.98159423828125 279.4551721191406 139.71010253906252Q279.64727294921875 142.43861083984376 282.28907958984377 142.43861083984376Q284.10809204101565 142.43861083984376 286.1090057373047 141.35570129394532Q288.10991943359375 140.27279174804687 290.90813354492184 137.09716186523437Q291.8431335449219 136.09075439453125 292.6183331298828 135.84595397949218Q293.39353271484373 135.6011535644531 293.96473022460935 135.92415771484374ZM348.4497302246094 152.79483154296875Q345.16193603515626 165.43941162109374 338.7937322998047 174.11450622558596Q332.42552856445315 182.78960083007814 323.28123229980474 187.20960083007813Q314.1369360351563 191.62960083007812 302.47836425781253 191.62960083007812Q294.42042236328126 191.62960083007812 290.31837341308596 189.28533569335937Q286.21632446289067 186.94107055664062 286.21632446289067 183.45613281250002Q286.21632446289067 180.9503759765625 287.94520080566406 179.31670959472655Q289.6740771484375 177.68304321289062 292.56403564453126 177.68304321289062Q294.70260742187503 177.68304321289062 296.6150866699219 178.61122619628907Q298.5275659179688 179.5394091796875 300.4366522216797 180.78208801269534Q302.34573852539063 182.02476684570314 304.4078289794922 182.95294982910156Q306.46991943359376 183.8811328125 308.972314453125 183.8811328125Q315.2589733886719 183.8811328125 320.80103149414066 180.71910583496094Q326.3430895996094 177.55707885742189 330.5948327636719 171.4319323730469Q334.8465759277344 165.30678588867187 337.3285925292969 156.44972778320312L349.7148107910157 112.15785888671874L352.20023071289063 113.19819580078125Q345.78779418945317 126.24745971679687 339.4722692871094 134.70840454101562Q333.15674438476566 143.16934936523438 326.97043151855473 147.27317260742188Q320.78411865234375 151.3769958496094 314.61991699218754 151.3769958496094Q309.3193286132813 151.3769958496094 305.8479418945313 148.38498962402343Q302.3765551757813 145.3929833984375 301.18147094726567 139.59257385253906Q299.98638671875005 133.79216430664061 301.34300415039064 125.34655517578125Q302.57041992187504 117.900546875 305.63213195800785 110.65005310058594Q308.69384399414065 103.39955932617187 313.3178460693359 97.0602734375Q317.94184814453126 90.72098754882812 323.9734344482422 85.86070373535156Q330.00502075195317 81.000419921875 337.1942858886719 78.21753112792967Q344.38355102539066 75.43464233398437 352.47888793945316 75.43464233398437Q357.75901489257814 75.43464233398437 361.3442779541016 76.31693237304687Q364.92954101562503 77.19922241210936 366.7468310546875 78.86010498046875Q368.56412109375003 80.52098754882812 368.40092773437505 82.85676513671875Q368.2785327148438 84.51594604492188 367.5305389404297 85.763740234375Q366.78254516601567 87.01153442382812 365.9393518066407 88.32052612304688Q365.0961584472657 89.62951782226563 364.5725659179688 91.49269042968749ZM312.2431335449219 124.80260498046874Q311.14491943359377 130.39565063476562 311.69912109375 134.6099884033203Q312.2533227539063 138.824326171875 314.1709381103516 141.13124816894532Q316.0885534667969 143.43817016601562 319.1349816894531 143.43817016601562Q323.5618090820313 143.43817016601562 328.41703979492195 139.45334899902343Q333.27227050781255 135.46852783203124 337.84869873046875 129.0492950439453Q342.425126953125 122.63006225585937 346.1685510253907 115.10242614746093Q349.9119750976563 107.57479003906249 352.2545904541016 100.36166015625Q354.5972058105469 93.1485302734375 354.8556091308594 87.82071533203126Q354.98481079101566 84.98850952148437 353.16409667968753 83.66080993652344Q351.3433825683594 82.3331103515625 348.05216430664063 82.3331103515625Q343.79874023437503 82.3331103515625 339.32091491699225 84.53120910644532Q334.8430895996094 86.72930786132812 330.57776428222655 90.67330993652344Q326.31243896484375 94.61731201171875 322.6013153076172 99.96042114257813Q318.89019165039065 105.3035302734375 316.2126708984375 111.6139501953125Q313.5351501464844 117.9243701171875 312.2431335449219 124.80260498046874ZM419.55050781250003 130.7051867675781Q417.86410034179687 137.1958166503906 418.481201171875 139.67441955566406Q419.09830200195313 142.1530224609375 421.03290283203125 142.1530224609375Q422.74311279296876 142.1530224609375 424.49922607421877 141.0174133300781Q426.2553393554688 139.88180419921875 428.65235595703126 136.94077514648438Q429.59075927734375 135.805166015625 430.37956176757814 135.56036560058592Q431.1683642578125 135.31556518554686 431.76336425781255 135.57396850585937Q432.84794433593754 135.89697265625 432.9550347900391 137.25185729980467Q433.06212524414065 138.60674194335937 432.0965368652344 140.70449462890625Q429.3119360351563 145.90985229492188 425.23877380371096 148.64342407226565Q421.1656115722657 151.3769958496094 416.4260522460938 151.3769958496094Q412.3698962402344 151.3769958496094 410.22961242675785 149.12621826171875Q408.0893286132813 146.87544067382814 408.0893286132813 142.81247802734376Q408.0893286132813 141.14308715820312 408.3783306884766 138.87868591308592Q408.6673327636719 136.61428466796875 409.46124023437505 133.10036682128907Q410.2551477050782 129.58644897460937 411.7375634765625 124.27390747070312Q413.2199792480469 118.96136596679688 415.6272058105469 111.28069458007812L417.2184033203125 113.45659912109375Q411.26497924804687 126.35966552734375 405.19086181640625 134.7662091064453Q399.11674438476564 143.17275268554687 393.0103369140625 147.27487426757813Q386.9039294433594 151.3769958496094 380.74653442382817 151.3769958496094Q372.9401477050782 151.3769958496094 369.2120697021485 144.70108215332033Q365.4839916992188 138.02516845703124 367.55121826171876 125.36695434570312Q368.77863403320316 117.92094604492186 371.77574523925784 110.67045227050781Q374.7728564453125 103.41995849609376 379.3101568603516 97.07047302246093Q383.84745727539064 90.72098754882812 389.7719427490234 85.86070373535156Q395.69642822265627 81.000419921875 402.8210925292969 78.21753112792967Q409.9457568359375 75.43464233398437 418.02069458007816 75.43464233398437Q423.3416198730469 75.43464233398437 426.93708251953126 76.32713195800781Q430.53254516601567 77.21962158203125 432.3498352050782 78.91110290527344Q434.16712524414066 80.60258422851562 434.0447302246094 82.99955932617188Q433.94273437500004 84.69953857421875 433.10294433593754 85.94733276367188Q432.26315429687503 87.195126953125 431.29756591796877 88.51431823730468Q430.3319775390625 89.83350952148437 429.78798583984377 91.77827880859374ZM378.45134765625005 124.761806640625Q376.7071252441406 133.54747802734374 378.86954101562503 138.49282409667967Q381.0319567871094 143.43817016601562 385.3227966308594 143.43817016601562Q389.74962402343755 143.43817016601562 394.45355224609375 139.35644775390625Q399.15748046875 135.27472534179688 403.57240661621097 128.65149047851563Q407.98733276367193 122.02825561523437 411.6117547607422 114.37141784667969Q415.23617675781253 106.714580078125 417.53629211425783 99.4045489501953Q419.83640747070314 92.09451782226563 420.28861328125004 86.76670288085937Q420.4824157714844 84.47170288085937 419.1139074707031 83.40240661621092Q417.7453991699219 82.3331103515625 413.61437011718755 82.3331103515625Q409.3609460449219 82.3331103515625 404.98002197265623 84.53120910644532Q400.59909790039063 86.72930786132812 396.388173828125 90.67330993652344Q392.1772497558594 94.61731201171875 388.60552734375005 99.95022155761718Q385.03380493164065 105.28313110351561 382.3885845947266 111.59355102539061Q379.7433642578125 117.90397094726562 378.45134765625005 124.761806640625Z" fill="#16302b"/><path d="M192.93975161132812 235.0V211.744H198.48252150878903L206.10527419433592 234.1602H204.2447555541992L211.82874981689451 211.744H217.42319892578124V235.0H213.8895229370117V213.1329H214.43863476562498L207.05489892578123 235.0H203.10133082275388L195.74343656005857 213.32670000000002H196.27962760009763V235.0ZM238.50215053710937 235.0 247.223134765625 211.744H250.3239820800781L242.00998889160155 235.0ZM256.40923583984375 235.0 248.1081634399414 211.744H251.38343154296874L260.10441577148435 235.0ZM242.9337089599609 225.75574946289063H255.44029104003906V228.70154731445314H242.9337089599609ZM287.70150107421875 235.0V214.66395627441406H279.87845053710936V211.744H299.1034483886719V214.66395627441406H291.2803978515625V235.0ZM330.5184 235.323Q328.0765168457031 235.323 326.0125440856933 234.43475Q323.9485713256836 233.5465 322.43046935424803 231.9411896057129Q320.9123673828125 230.33587921142578 320.07902580566406 228.14270842285157Q319.2456842285156 225.94953763427733 319.2456842285156 223.33323763427734Q319.2456842285156 220.71693763427734 320.0725654113769 218.54314802856447Q320.89944659423827 216.36935842285158 322.4078589599609 214.77050842285158Q323.91627132568357 213.17165842285158 325.98024408569336 212.29632921142579Q328.0442168457031 211.421 330.4990207885742 211.421Q333.21868709716796 211.421 335.3924826171875 212.50628118286133Q337.566278137207 213.59156236572267 338.9584112915039 215.56186433715823Q340.3505444458008 217.53216630859376 340.67354444580076 220.16784946289062H337.1463308227539Q336.74581003417967 217.44819892578124 334.96608673706055 215.93979838867187Q333.1863634399414 214.4313978515625 330.5313207885742 214.4313978515625Q328.2509534057617 214.4313978515625 326.5261424743652 215.53282114868165Q324.80133154296874 216.6342444458008 323.84525627441406 218.62714498291018Q322.88918100585937 220.62004552001954 322.88918100585937 223.32031684570313Q322.88918100585937 226.03350895996093 323.85171666870116 228.05225107421876Q324.81425233154295 230.07099318847656 326.54552365722657 231.191797668457Q328.27679498291013 232.3126021484375 330.53778315429685 232.3126021484375Q333.1799010742187 232.3126021484375 334.97900358276365 230.80097239990232Q336.7781060913086 229.28934265136718 337.18508924560547 226.5890713256836H340.73814444580074Q340.3763820800781 229.22475447998048 338.9777885314941 231.195056451416Q337.57919498291017 233.16535842285157 335.4118598571777 234.24417921142577Q333.24452473144527 235.323 330.5184 235.323ZM362.03025161132814 235.0V211.744H365.6091483886719V235.0ZM377.3921189941406 235.0V211.744H380.97101577148436V235.0ZM363.7744752685547 221.42752186279296H378.9942258056641V224.34747813720702H363.7744752685547ZM402.06935053710936 235.0 410.790334765625 211.744H413.8911820800781L405.57718889160157 235.0ZM419.97643583984376 235.0 411.6753634399414 211.744H414.9506315429687L423.67161577148437 235.0ZM406.50090895996095 225.75574946289063H419.00749104003904V228.70154731445314H406.50090895996095Z" fill="#2c5a7a"/></svg>
